<svg width="55" height="60" viewBox="0 0 55 60" fill="none" xmlns="http://www.w3.org/2000/svg">
<path d="M27.792 31.864C27.84 31.576 27.84 31.048 27.84 30.712C27.84 22.072 22.128 17.656 14.64 17.656C7.2 17.656 1.104 23.512 1.104 30.712C1.104 37.864 7.2 43.72 14.64 43.72C20.112 43.72 24.624 41.944 27.408 37.288L21.264 34.216C19.2 36.424 18 36.952 15.264 36.952C13.104 36.952 9.936 35.656 9.936 31.864H27.792ZM10.176 27.16C10.32 24.904 11.952 23.176 14.88 23.176C17.376 23.176 19.152 24.568 19.536 27.16H10.176ZM21.1515 30.712C21.1515 37.912 26.1915 43.72 33.3915 43.72C36.7515 43.72 39.6315 42.232 41.4555 40.216H41.5515V43H49.9515V18.376H41.4555V20.728C39.4395 18.76 36.7035 17.656 33.3915 17.656C26.1915 17.656 21.1515 23.512 21.1515 30.712ZM30.1755 30.712C30.1755 27.304 32.7195 24.904 35.9355 24.904C39.1035 24.904 41.6475 27.304 41.6475 30.712C41.6475 34.072 39.2475 36.472 35.9355 36.472C32.4795 36.472 30.1755 34.072 30.1755 30.712Z" fill="#0E2A41"/>
</svg>
